<?xml version="1.0" standalone="no"?>
<!DOCTYPE svg PUBLIC "-//W3C//DTD SVG 20010904//EN"
 "http://www.w3.org/TR/2001/REC-SVG-20010904/DTD/svg10.dtd">
<svg version="1.0" xmlns="http://www.w3.org/2000/svg"
 width="700.000000pt" height="700.000000pt" viewBox="0 0 700.000000 700.000000"
 preserveAspectRatio="xMidYMid meet">
<metadata>
Created by potrace 1.11, written by Peter Selinger 2001-2013
</metadata>
<g transform="translate(0.000000,700.000000) scale(0.100000,-0.100000)"
fill="#000000" stroke="none">
<path d="M3269 6936 c-2 -2 -40 -7 -84 -10 -87 -8 -131 -13 -185 -21 -19 -3
-51 -8 -70 -11 -106 -16 -327 -67 -338 -78 -3 -3 14 -72 37 -153 24 -82 44
-155 46 -163 2 -8 18 -66 36 -128 30 -102 35 -113 53 -109 12 2 62 14 111 25
50 11 110 24 135 27 24 4 47 8 50 10 3 1 39 6 80 10 41 4 89 9 105 12 49 8
394 10 470 3 39 -4 73 -4 77 -1 3 3 9 38 12 76 38 467 39 492 24 501 -12 8
-551 17 -559 10z"/>
<path d="M4457 6748 c-49 -165 -58 -195 -61 -213 -4 -19 -72 -256 -81 -282 -2
-6 19 -18 48 -28 190 -61 500 -201 616 -280 29 -19 55 -35 57 -35 6 0 131 -87
173 -120 l34 -27 124 156 c67 86 149 189 180 230 l57 74 -29 24 c-112 91 -406
269 -590 357 -138 67 -471 196 -505 196 -4 0 -14 -24 -23 -52z"/>
<path d="M1930 6564 c-99 -54 -258 -147 -311 -182 -77 -50 -182 -124 -195
-136 -6 -6 -29 -24 -50 -41 -97 -76 -178 -147 -283 -250 l-113 -112 97 -94
c99 -95 126 -121 253 -242 l71 -68 84 83 c222 220 469 400 720 524 26 13 47
26 47 28 0 2 -15 32 -33 67 -19 35 -78 151 -132 257 -53 105 -100 192 -104
191 -3 0 -26 -12 -51 -25z"/>
<path d="M3000 5802 c-50 -7 -177 -44 -270 -78 -121 -44 -362 -164 -420 -209
-25 -19 -81 -60 -125 -92 -156 -111 -282 -224 -435 -389 -314 -337 -526 -821
-567 -1294 -9 -103 -8 -372 1 -455 5 -53 17 -141 21 -155 0 -3 7 -36 14 -75
60 -319 213 -678 402 -940 68 -95 92 -119 141 -140 33 -13 226 -15 1742 -15
l1704 0 53 36 c67 44 104 84 235 252 l104 133 104 312 c57 172 107 330 110
352 20 141 26 415 12 550 -18 171 -75 432 -131 594 -14 41 -25 91 -25 110 0
50 -18 110 -44 146 l-21 30 -6 -80 c-5 -75 -44 -217 -234 -850 -51 -167 -147
-492 -159 -535 -7 -25 -30 -101 -50 -170 -95 -320 -109 -369 -122 -426 -7 -34
-17 -72 -22 -85 -14 -35 -29 -89 -37 -127 -7 -33 -8 -34 -48 -29 -23 3 -105
22 -182 42 -267 68 -381 92 -453 94 -27 1 -29 -18 21 211 17 80 37 152 44 161
8 9 32 63 53 119 21 56 46 110 53 119 8 9 26 59 40 111 30 109 85 318 132 500
18 69 54 203 79 298 25 96 48 184 51 195 18 87 81 294 169 560 l104 312 83 1
c100 0 170 -11 221 -36 41 -20 41 -20 -13 60 -169 252 -426 482 -688 617 -207
107 -371 161 -721 238 -58 12 -113 26 -123 30 -17 7 -17 -72 -14 -1766 1 -976
6 -1786 10 -1801 6 -21 3 -32 -12 -47 -19 -19 -36 -20 -361 -21 l-340 0 0
1820 0 1820 -27 -2 c-16 -2 -39 -4 -53 -6z m-164 -700 c34 -22 34 -37 34
-1492 l0 -1441 -296 3 -296 3 -19 24 c-18 23 -19 60 -19 1432 l0 1410 33 34
32 34 260 0 c143 0 265 -3 271 -7z m1364 -1637 l0 -1295 -105 0 -105 0 0 1295
0 1295 105 0 105 0 0 -1295z m-2145 790 c62 -11 80 -17 98 -32 16 -15 17 -76
17 -1012 -1 -837 -3 -999 -15 -1014 -32 -43 -99 -49 -325 -33 -112 9 -138 19
-146 61 -5 30 3 1129 11 1340 13 378 31 616 52 689 5 17 14 18 142 12 75 -3
150 -8 166 -11z"/>
<path d="M6018 5743 c-24 -21 -45 -40 -48 -43 -10 -11 -293 -256 -316 -273
l-24 -19 79 -96 c185 -229 317 -447 426 -707 21 -49 41 -94 45 -98 6 -7 514
186 533 203 19 17 -155 388 -269 572 -116 188 -349 498 -374 498 -6 0 -29 -17
-52 -37z"/>
<path d="M549 5273 c-157 -274 -263 -511 -340 -768 -22 -73 -42 -141 -44 -152
-2 -10 -10 -47 -19 -83 -18 -78 -26 -120 -22 -120 2 0 28 -5 57 -10 30 -6 68
-13 84 -16 17 -2 37 -7 45 -9 8 -2 35 -7 60 -10 25 -4 90 -15 145 -25 55 -10
118 -21 140 -25 l41 -6 13 63 c8 35 16 72 18 83 2 11 10 41 18 66 9 25 17 54
19 65 23 116 178 468 276 629 l40 65 -73 47 c-39 25 -101 65 -137 88 -139 90
-261 166 -274 171 -9 3 -26 -16 -47 -53z"/>
<path d="M6837 4084 c-1 -1 -15 -4 -32 -7 -135 -23 -163 -27 -185 -32 -14 -3
-41 -8 -60 -11 -19 -4 -44 -8 -55 -10 -11 -2 -47 -9 -80 -14 -117 -20 -108
-14 -100 -73 12 -91 14 -110 21 -167 10 -89 11 -407 2 -510 -21 -230 -70 -465
-140 -673 -22 -65 -39 -120 -37 -121 2 -2 124 -51 271 -108 l267 -105 10 26
c42 103 134 425 155 541 2 14 7 36 10 50 5 24 10 53 21 130 20 132 29 250 29
380 l1 115 -72 -1 c-87 0 -87 10 0 12 34 1 66 3 71 3 7 1 1 262 -8 331 -2 14
-7 50 -10 80 -21 171 -20 170 -52 168 -14 -2 -26 -3 -27 -4z"/>
<path d="M64 3362 c6 -169 9 -207 22 -297 4 -27 8 -54 9 -60 1 -11 18 -117 20
-125 1 -3 5 -25 9 -50 4 -25 21 -97 38 -160 16 -63 31 -122 33 -131 8 -36 79
-245 87 -255 6 -8 56 7 171 53 89 36 190 76 224 88 107 40 155 64 148 75 -19
31 -88 256 -111 361 -42 197 -62 349 -69 529 -2 47 -4 94 -4 105 -1 19 -9 20
-149 22 -81 1 -212 4 -291 7 l-144 4 7 -166z"/>
<path d="M840 1872 c-119 -75 -228 -146 -244 -158 l-28 -20 64 -95 c68 -101
110 -161 118 -169 3 -3 32 -39 65 -80 93 -117 110 -136 260 -285 192 -192 328
-306 344 -289 14 15 336 428 344 440 3 6 -28 38 -75 75 -108 85 -304 282 -399
399 -90 112 -194 257 -210 294 -7 14 -15 26 -18 26 -3 0 -103 -62 -221 -138z"/>
<path d="M5895 1942 c-29 -47 -133 -192 -144 -202 -3 -3 -24 -27 -46 -55 -104
-131 -283 -309 -417 -414 -38 -29 -68 -56 -68 -60 0 -5 39 -57 86 -117 48 -60
98 -124 113 -143 81 -105 153 -191 159 -191 4 0 19 10 34 23 15 12 63 51 107
87 120 98 355 339 468 481 95 120 240 327 232 332 -2 1 -29 19 -59 38 -216
141 -420 269 -427 269 -4 0 -21 -21 -38 -48z"/>
<path d="M2377 1448 c23 -13 65 -44 93 -70 36 -35 58 -48 80 -48 16 0 71 -14
122 -31 146 -49 404 -121 478 -134 19 -3 42 -8 50 -10 14 -4 31 -7 150 -25 55
-9 331 -6 347 3 4 2 31 7 60 11 156 18 375 82 643 187 19 8 91 42 160 76 l125
62 -1175 0 -1175 1 42 -22z"/>
<path d="M2157 827 c-31 -61 -90 -176 -130 -254 -41 -79 -71 -145 -68 -148 8
-9 148 -74 241 -112 211 -87 534 -178 737 -209 21 -3 48 -7 59 -9 12 -2 48 -6
80 -10 33 -4 69 -8 82 -10 20 -3 22 1 23 38 1 23 2 53 4 67 1 14 5 70 9 125 4
55 9 116 11 135 12 121 15 209 8 213 -4 3 -37 8 -73 12 -36 4 -108 15 -160 26
-95 18 -108 21 -165 34 -134 31 -359 109 -494 172 -51 23 -96 43 -100 43 -3 0
-32 -51 -64 -113z"/>
<path d="M4674 895 c-169 -79 -470 -175 -624 -200 -19 -3 -46 -8 -60 -10 -14
-3 -34 -7 -45 -9 -24 -4 -132 -18 -160 -20 -23 -1 -24 -19 -12 -181 4 -49 10
-130 13 -180 14 -192 18 -220 34 -220 24 1 153 15 175 19 11 2 54 9 95 16 182
29 410 91 600 162 141 53 306 123 328 141 12 9 0 34 -215 450 -20 37 -41 67
-47 66 -6 0 -43 -16 -82 -34z"/>
</g>
</svg>
