<?xml version="1.0" standalone="no"?>
<!DOCTYPE svg PUBLIC "-//W3C//DTD SVG 20010904//EN"
 "http://www.w3.org/TR/2001/REC-SVG-20010904/DTD/svg10.dtd">
<svg version="1.0" xmlns="http://www.w3.org/2000/svg"
 width="1182.000000pt" height="1182.000000pt" viewBox="0 0 1182.000000 1182.000000"
 preserveAspectRatio="xMidYMid meet">
<metadata>
Created by potrace 1.11, written by Peter Selinger 2001-2013
</metadata>
<g transform="translate(0.000000,1182.000000) scale(0.100000,-0.100000)"
fill="#000000" stroke="none">
<path d="M3534 10544 c-159 -27 -289 -92 -399 -202 -51 -50 -111 -129 -104
-136 2 -3 69 -6 148 -7 139 -2 283 -17 386 -39 28 -5 60 -12 72 -14 144 -28
383 -124 517 -208 170 -107 352 -284 443 -433 95 -156 163 -335 199 -525 9
-47 17 -92 19 -101 12 -60 41 -131 75 -184 67 -103 108 -249 104 -369 -5 -137
-74 -228 -259 -343 -101 -63 -184 -122 -203 -146 -19 -23 -8 -47 46 -104 124
-129 346 -170 597 -109 116 28 242 101 335 195 65 65 140 177 140 208 0 5 -30
22 -67 37 -196 84 -306 198 -380 396 -19 50 -99 349 -118 440 -21 102 -136
439 -202 593 -152 352 -278 553 -451 724 -260 255 -598 378 -898 327z"/>
<path d="M8680 10149 c-116 -15 -134 -18 -210 -34 -41 -9 -85 -18 -96 -21 -56
-11 -208 -59 -286 -90 -401 -160 -626 -440 -707 -881 -11 -59 -23 -134 -26
-166 l-6 -58 43 5 c24 3 86 8 138 11 52 4 115 8 140 10 25 2 86 6 135 10 50 3
104 8 120 10 17 2 70 7 119 10 50 4 97 8 105 10 9 1 54 6 101 10 47 4 87 8 90
10 3 1 37 6 75 9 39 4 81 9 95 11 14 2 45 7 70 10 37 5 269 42 385 62 193 32
812 185 901 222 20 9 20 12 9 68 -48 229 -130 395 -260 526 -131 132 -306 215
-530 254 -55 9 -339 11 -405 2z"/>
<path d="M3029 10046 c-2 -2 -38 -7 -78 -10 -41 -4 -77 -9 -80 -11 -4 -2 -24
-6 -46 -9 -68 -11 -216 -54 -307 -89 -317 -125 -568 -344 -723 -632 -43 -79
-93 -217 -103 -285 -14 -89 -6 -222 17 -289 34 -100 135 -242 160 -227 22 14
60 105 124 297 36 107 81 228 102 269 86 171 212 295 396 390 l66 34 74 -61
c208 -171 474 -280 754 -308 33 -3 75 -8 94 -11 19 -2 80 -7 135 -9 56 -3 146
-7 201 -10 369 -18 476 -77 592 -323 73 -157 117 -243 124 -248 9 -5 62 79 84
131 27 67 42 160 39 242 -5 133 -28 217 -99 368 -203 428 -607 704 -1143 780
-84 11 -373 20 -383 11z"/>
<path d="M2443 9253 c-185 -149 -253 -264 -319 -540 -44 -187 -58 -230 -102
-325 l-35 -78 -57 0 c-79 0 -108 12 -236 102 -62 43 -115 78 -119 78 -3 0 -4
-8 -1 -17 2 -10 7 -49 11 -87 10 -103 38 -183 76 -217 17 -15 62 -40 99 -54
80 -31 143 -69 190 -117 48 -48 46 -46 133 -199 42 -75 97 -164 122 -197 94
-125 292 -285 454 -367 76 -38 229 -92 286 -101 22 -3 42 -7 45 -9 15 -9 137
-18 236 -17 393 3 775 195 1010 508 61 82 140 228 159 296 19 68 24 72 191
157 226 116 265 184 238 418 -11 103 4 111 -197 -99 -66 -69 -78 -75 -176 -80
l-43 -3 -44 80 c-52 96 -92 217 -100 305 -7 90 -21 126 -54 150 -27 19 -112
43 -200 55 -25 3 -56 8 -70 10 -14 2 -52 6 -85 10 -33 3 -76 8 -95 10 -19 2
-66 7 -105 10 -38 3 -81 8 -95 10 -14 2 -56 6 -95 10 -38 3 -77 8 -85 10 -8 2
-32 6 -53 9 -230 34 -396 96 -704 260 l-122 66 -58 -47z m452 -728 c58 -101
37 -157 -86 -232 l-37 -23 -47 42 c-143 126 -124 237 47 282 50 13 54 13 76
-8 13 -11 34 -39 47 -61z m802 58 c48 -23 93 -93 86 -136 -10 -62 -61 -125
-131 -161 -26 -13 -30 -12 -75 20 -25 18 -54 46 -64 60 -43 66 -7 196 62 225
33 13 85 10 122 -8z m-996 -625 c20 -18 60 -73 90 -123 29 -49 65 -103 80
-120 31 -35 109 -81 154 -90 134 -27 266 -26 366 5 87 26 149 82 219 197 55
89 134 176 169 186 23 6 33 -26 33 -102 -2 -189 -221 -390 -486 -445 -336 -71
-727 184 -726 472 0 20 3 47 6 59 6 21 8 21 33 9 15 -8 43 -29 62 -48z"/>
<path d="M10169 9236 c-2 -2 -25 -6 -50 -9 -64 -8 -116 -22 -244 -68 -60 -21
-202 -68 -315 -103 -179 -56 -397 -142 -387 -153 2 -2 26 -5 53 -8 27 -3 72
-7 99 -10 171 -19 354 -29 535 -28 132 0 286 8 340 18 8 1 35 6 60 10 194 30
358 102 444 195 31 34 54 65 51 70 -10 16 -152 61 -235 75 -73 11 -341 20
-351 11z"/>
<path d="M11564 8945 c-54 -25 -115 -80 -219 -199 -115 -130 -164 -176 -192
-176 -6 0 -28 20 -49 45 -30 37 -37 55 -41 97 -3 50 -47 148 -69 155 -19 6
-104 -57 -131 -98 l-28 -43 0 -210 0 -210 -45 -33 c-125 -93 -185 -147 -425
-384 -308 -303 -345 -338 -450 -419 -44 -34 -84 -65 -88 -70 -10 -9 41 -93
111 -184 62 -81 197 -215 255 -255 l48 -33 32 25 c18 13 100 94 182 178 261
267 438 442 500 496 438 376 579 514 716 702 136 188 175 355 113 491 -62 136
-124 171 -220 125z"/>
<path d="M145 8940 c-70 -15 -107 -55 -129 -141 -56 -222 91 -467 565 -939
201 -200 394 -379 659 -610 77 -68 203 -189 451 -432 218 -215 361 -338 392
-338 14 0 7 638 -7 708 -25 116 -68 185 -195 313 -64 63 -147 142 -186 175
-103 87 -110 93 -235 200 -163 139 -357 337 -413 420 -79 120 -96 196 -67 300
10 33 17 76 15 96 -2 40 -39 96 -96 146 -43 38 -57 37 -106 -7 -26 -22 -34
-38 -38 -76 -5 -58 -21 -107 -47 -151 l-19 -32 -52 12 c-102 24 -131 50 -179
158 -55 119 -212 219 -313 198z"/>
<path d="M8557 8854 c-1 -1 -58 -5 -127 -9 -143 -7 -170 -10 -260 -19 -36 -4
-87 -9 -115 -12 -27 -3 -66 -7 -85 -9 -19 -2 -60 -7 -90 -10 -30 -3 -75 -7
-100 -10 -25 -3 -81 -7 -125 -10 -431 -31 -594 -101 -639 -272 -27 -104 7
-273 66 -330 20 -19 70 -47 121 -67 167 -66 174 -72 287 -276 220 -396 485
-608 861 -689 394 -85 730 -20 1012 193 106 81 191 167 300 306 21 27 127 188
127 193 0 3 23 43 51 89 54 88 78 113 143 145 23 11 75 37 116 57 115 56 165
146 164 296 0 175 -111 278 -319 295 -38 3 -158 8 -265 10 -107 2 -206 5 -220
8 -14 3 -47 8 -75 12 -64 8 -322 53 -395 70 -14 3 -41 8 -60 11 -19 3 -38 8
-41 10 -13 8 -324 25 -332 18z m-249 -278 c55 -28 62 -98 18 -186 -49 -97 -42
-93 -124 -87 -81 6 -98 16 -120 67 -38 91 -16 186 50 213 42 18 136 14 176 -7z
m840 -3 c39 -19 60 -46 68 -91 13 -70 -48 -145 -148 -178 l-50 -16 -35 33
c-43 42 -55 71 -54 129 1 111 10 127 81 137 19 3 36 6 38 8 7 6 68 -7 100 -22z
m-1028 -586 c46 -27 57 -39 65 -72 17 -66 43 -106 114 -175 108 -107 196 -136
375 -127 188 10 261 52 361 207 35 55 77 112 92 128 34 35 102 77 110 68 4 -3
6 -36 6 -74 -2 -287 -383 -544 -707 -476 -275 58 -513 262 -519 447 -2 55 17
107 38 107 6 0 35 -15 65 -33z"/>
<path d="M7530 7229 c-52 -50 -202 -196 -334 -323 -131 -127 -268 -258 -303
-291 l-64 -60 39 -60 c37 -58 119 -143 192 -202 61 -49 101 -85 233 -213 271
-261 274 -265 281 -339 4 -39 -14 -150 -38 -246 -13 -52 -66 -307 -75 -365 -6
-36 -13 -76 -16 -90 -3 -14 -7 -43 -10 -65 -3 -22 -7 -51 -10 -65 -8 -43 -14
-82 -25 -175 -6 -49 -13 -101 -15 -115 -6 -41 -18 -163 -19 -199 l-1 -34 169
-84 c274 -137 428 -191 621 -218 28 -4 58 -9 69 -11 47 -8 235 -17 376 -17
224 0 406 12 510 33 25 5 56 12 70 14 14 3 34 7 45 10 45 10 178 62 295 116
116 53 274 116 345 138 17 5 30 15 30 23 -2 57 -19 179 -45 334 -10 61 -21
126 -24 145 -3 19 -8 49 -11 65 -3 17 -7 44 -10 60 -3 17 -7 40 -9 51 -2 12
-7 39 -10 60 -3 22 -8 50 -11 64 -5 30 -15 93 -20 135 -3 17 -7 46 -10 65 -19
118 -29 235 -29 325 1 103 18 155 81 233 33 42 143 145 217 204 102 82 285
252 354 329 l22 26 -47 55 c-27 30 -70 82 -98 114 -138 162 -236 266 -422 452
-113 111 -209 202 -214 202 -5 0 -40 -20 -77 -44 -164 -107 -344 -195 -505
-247 -159 -51 -238 -63 -412 -63 -242 -1 -443 64 -715 229 -118 72 -240 135
-260 135 -8 0 -58 -41 -110 -91z"/>
<path d="M2249 7198 c0 -13 -3 -32 -6 -43 -4 -11 -7 -281 -8 -600 -1 -498 -4
-592 -18 -663 -37 -181 -116 -419 -207 -618 -17 -35 -30 -66 -30 -68 0 -2 -16
-39 -36 -83 -37 -79 -59 -126 -211 -448 -191 -403 -260 -577 -314 -784 -24
-93 -27 -117 -17 -127 22 -21 315 -167 453 -226 188 -81 448 -169 565 -193 8
-2 44 -10 80 -18 333 -77 778 -94 1110 -42 223 35 566 118 675 164 11 5 61 24
110 41 205 74 615 263 615 283 0 16 -118 362 -134 392 -9 17 -16 34 -16 38 0
15 -154 372 -293 682 -74 165 -147 329 -162 365 -15 36 -33 79 -40 95 -84 194
-160 447 -190 630 -12 77 -18 226 -16 385 7 453 0 817 -16 844 -15 24 -144
-11 -293 -79 -52 -24 -116 -53 -141 -64 -58 -25 -186 -67 -230 -76 -114 -20
-177 -26 -279 -26 -220 0 -372 38 -625 156 -115 54 -189 81 -245 90 -25 3 -53
9 -62 11 -13 4 -18 -1 -19 -18z"/>
<path d="M4313 7098 c-1 -7 -4 -85 -9 -173 -18 -353 -6 -502 47 -611 40 -81
108 -149 319 -321 96 -77 249 -214 340 -303 270 -265 329 -318 479 -435 l114
-89 49 55 c147 162 288 342 307 391 8 22 5 28 -28 54 -21 16 -71 58 -111 94
-40 36 -82 73 -94 83 -47 41 -423 391 -566 527 -14 14 -91 85 -171 159 -79 74
-151 142 -160 150 -145 142 -483 431 -504 431 -6 0 -12 -6 -12 -12z"/>
<path d="M6825 6189 c-178 -151 -327 -292 -705 -669 -263 -262 -336 -351 -392
-480 -73 -166 -55 -311 53 -419 39 -38 44 -40 83 -35 63 10 137 40 176 73 20
16 64 74 98 129 35 55 85 121 111 145 l49 46 58 -15 c85 -21 102 -31 173 -104
l65 -65 22 50 c40 87 49 167 30 241 -13 50 -13 61 0 92 14 35 132 156 260 267
102 88 165 147 291 271 l114 112 -59 73 c-87 108 -255 267 -342 322 -25 16
-27 15 -85 -34z"/>
<path d="M6272 4699 c-35 -61 -61 -113 -58 -116 10 -11 129 -3 180 12 98 29
98 29 16 128 -39 48 -72 87 -73 87 -2 0 -31 -50 -65 -111z"/>
<path d="M9675 4113 c-11 -3 -81 -25 -155 -50 -74 -24 -143 -46 -152 -48 -9
-2 -25 -8 -35 -13 -22 -12 -252 -69 -308 -76 -197 -27 -533 -28 -665 -1 -13 2
-42 7 -65 10 -22 3 -74 12 -115 20 -41 8 -88 17 -105 20 -36 7 -46 9 -205 41
-69 14 -155 28 -191 31 l-66 6 -7 -34 c-3 -19 -9 -56 -12 -84 -3 -27 -7 -63
-10 -80 -2 -16 -8 -66 -14 -110 -6 -44 -12 -91 -14 -105 -2 -14 -7 -52 -11
-85 -4 -32 -8 -67 -10 -77 -2 -9 -6 -43 -10 -75 -3 -32 -8 -69 -10 -83 -6 -42
-34 -252 -40 -310 -3 -30 -10 -80 -15 -110 -5 -30 -14 -99 -20 -153 -6 -53
-13 -107 -15 -120 -5 -29 -23 -170 -30 -232 -3 -27 -8 -61 -10 -75 -10 -68
-16 -119 -30 -230 -2 -19 -7 -53 -10 -76 l-5 -40 112 -27 c245 -60 357 -77
533 -81 314 -9 452 82 529 347 13 46 27 110 31 143 3 32 8 70 10 84 2 14 6 66
10 115 4 50 8 106 10 125 2 19 6 76 9 125 4 50 9 106 11 125 2 19 7 64 10 100
3 36 7 75 9 85 2 11 7 47 10 80 6 49 15 107 21 135 1 3 5 31 9 63 9 59 25 78
27 30 2 -30 3 -44 12 -108 3 -22 9 -71 13 -110 3 -38 8 -78 10 -87 1 -9 6 -48
9 -85 4 -37 8 -79 10 -93 2 -14 7 -50 10 -80 3 -30 8 -68 10 -85 2 -16 6 -52
10 -80 8 -67 45 -324 51 -355 2 -14 7 -41 10 -60 12 -79 54 -234 71 -262 30
-50 163 -113 302 -143 65 -14 313 -15 371 -1 14 3 39 8 55 12 52 10 308 74
343 85 33 11 34 12 28 58 -5 45 -24 181 -31 231 -6 43 -14 103 -20 146 -7 54
-16 114 -19 139 -2 11 -7 47 -11 80 -4 33 -8 67 -10 75 -1 8 -6 40 -10 70 -3
30 -8 66 -10 80 -3 14 -7 45 -10 70 -3 25 -7 56 -10 70 -3 14 -10 63 -15 110
-6 47 -13 94 -15 105 -2 11 -7 43 -10 70 -3 28 -15 113 -26 190 -10 77 -22
158 -24 180 -3 22 -10 69 -15 105 -5 36 -12 81 -14 100 -5 34 -24 178 -31 230
-2 14 -4 28 -4 33 -1 7 -5 8 -36 0z"/>
<path d="M3930 3190 c-107 -15 -217 -31 -245 -35 -27 -3 -61 -8 -75 -11 -14
-2 -50 -6 -80 -10 -70 -8 -91 -12 -98 -19 -4 -4 8 -90 25 -170 16 -79 24 -118
56 -260 19 -88 38 -176 41 -195 3 -19 8 -44 10 -55 19 -96 23 -272 12 -435 -4
-58 -8 -118 -9 -134 -2 -29 0 -30 118 -69 228 -74 324 -99 436 -113 54 -6 222
-6 269 0 14 2 30 4 37 5 14 1 -25 81 -40 81 -21 0 -92 92 -127 165 -70 147
-86 258 -81 565 2 113 4 320 5 460 l1 255 -30 2 c-16 0 -118 -12 -225 -27z"/>
<path d="M2214 2923 c4 -159 8 -353 9 -433 3 -246 -20 -405 -78 -537 -29 -64
-108 -178 -133 -192 -20 -11 -57 -71 -45 -72 4 -1 22 -3 38 -5 55 -7 229 -6
285 1 88 10 174 32 340 85 85 27 167 52 182 56 23 5 27 10 24 33 -25 154 -23
478 4 606 5 22 11 58 14 80 4 22 22 110 41 195 40 180 75 350 75 367 0 7 -27
14 -67 18 -38 4 -76 9 -87 11 -10 2 -44 6 -75 9 -31 4 -63 8 -71 10 -8 2 -46
7 -85 11 -38 3 -77 8 -86 9 -9 2 -40 6 -70 10 -30 3 -83 10 -119 15 -116 17
-104 51 -96 -277z"/>
<path d="M7069 1876 c-2 -2 -20 -7 -39 -10 -32 -5 -57 -12 -195 -51 -27 -8
-61 -18 -75 -21 -41 -12 -104 -50 -123 -76 -32 -42 -36 -146 -12 -273 2 -11 4
-24 4 -28 2 -16 170 -87 252 -106 114 -26 208 -34 374 -33 177 1 664 1 900 -1
169 -2 183 -1 222 20 88 47 115 126 108 313 -2 69 -6 134 -9 145 -2 11 -5 23
-5 28 -2 20 -179 0 -376 -43 -240 -53 -373 -35 -760 100 -66 24 -113 33 -176
36 -47 2 -88 2 -90 0z"/>
<path d="M10099 1869 c-26 -4 -56 -12 -68 -18 -11 -7 -21 -9 -21 -7 0 3 -21
-4 -47 -15 -178 -77 -299 -108 -454 -116 -138 -6 -220 3 -404 45 -60 13 -140
30 -176 37 l-67 12 -7 -76 c-4 -42 -9 -96 -11 -121 -13 -146 4 -233 55 -269
35 -25 121 -49 201 -56 115 -10 1243 -2 1329 10 203 27 294 109 295 265 1 64
-3 82 -26 120 -33 56 -66 85 -137 120 -110 54 -339 89 -462 69z"/>
<path d="M2749 1649 c-232 -81 -250 -86 -339 -109 -225 -58 -500 -17 -601 91
-28 30 -48 42 -76 46 -45 6 -231 -37 -298 -68 -81 -38 -134 -121 -138 -220 -2
-31 2 -36 43 -56 46 -22 157 -49 245 -59 50 -5 109 -6 655 -5 157 0 323 -1
370 -2 224 -7 299 57 301 253 0 64 -9 170 -15 177 -1 2 -67 -20 -147 -48z"/>
<path d="M3495 1661 c-15 -78 -15 -196 0 -248 31 -105 107 -145 278 -145 56 0
224 0 372 0 149 1 335 0 415 -1 248 -2 381 15 487 63 62 28 63 30 58 62 -26
150 -81 207 -246 252 -165 46 -217 42 -274 -16 -33 -35 -128 -81 -190 -93 -22
-5 -49 -11 -60 -13 -11 -3 -74 -5 -140 -5 -145 0 -227 18 -460 103 -88 32
-176 62 -197 68 l-36 10 -7 -37z"/>
</g>
</svg>
