<?xml version="1.0" encoding="UTF-8"?>
<!DOCTYPE svg PUBLIC "-//W3C//DTD SVG 1.1//EN" "http://www.w3.org/Graphics/SVG/1.1/DTD/svg11.dtd">
<!-- Creator: CorelDRAW 2017 -->
<svg xmlns="http://www.w3.org/2000/svg" xml:space="preserve" width="3.97638in" height="3.11024in" version="1.1" style="shape-rendering:geometricPrecision; text-rendering:geometricPrecision; image-rendering:optimizeQuality; fill-rule:evenodd; clip-rule:evenodd"
viewBox="0 0 3976.38 3110.24"
 xmlns:xlink="http://www.w3.org/1999/xlink">
 <defs>
  <style type="text/css">
   <![CDATA[
    .fil1 {fill:#0081C3}
    .fil2 {fill:#009D56}
    .fil0 {fill:#EE3123}
   ]]>
  </style>
 </defs>
 <g id="Layer_x0020_1">
  <metadata id="CorelCorpID_0Corel-Layer"/>
  <g id="_2129004485808">
   <path class="fil0" d="M767.99 1119.67c-12.65,117.06 -3.32,250.13 -3.64,369.33 -0.61,225.77 -249.56,566.52 -282.05,780.54 424.03,240.33 792.71,215.26 1205.8,1.05 -26.63,-122.23 -157.37,-388.94 -210.6,-516.4 -120.55,-288.73 -50.56,-325.61 -78.09,-632.89 -94.23,2.73 -147.17,84.91 -314.2,84.82 -166.74,-0.08 -220.48,-82.04 -317.21,-86.46z"/>
   <path class="fil0" d="M2295.3 1340.27c30.68,62.08 78.96,82.86 133.74,138.3 189.5,191.74 99.7,19.04 42.54,582.97 138.47,71.52 207.26,111.66 410.73,111.78 272.55,0.15 252.93,-51.87 435.15,-107.5 -8.97,-109.09 -67.71,-376.12 -61.3,-453.6 6.98,-84.42 106.95,-117.2 225.46,-248.68 -86.77,-103.29 -152.78,-179.26 -261.22,-276.5 -379.35,258.01 -549.03,28.79 -658.78,-3.78l-266.31 257z"/>
   <path class="fil1" d="M2464.81 2866.82c510.95,135.78 362.46,-106.21 443.81,-500.7 14.56,86.08 43.67,461.5 81.31,496.28 125,76.33 236.22,35.06 362.81,2.77l-98.33 -713.98c-140.78,39.24 -171.72,72.9 -354.26,73.43 -121.34,0.33 -290.04,-52.79 -345.46,-50l-89.88 692.19z"/>
   <path class="fil1" d="M1085.34 990.57c149.93,1.34 116.24,-102.28 197.91,-138.91 35.48,94.36 -89.55,190.59 -197.93,189.6 -112.41,-1.03 -225.67,-97.68 -195.95,-189.54 84.54,36.5 40.39,137.46 195.97,138.85zm142.19 -223.04c-21.1,-14.86 -55.27,-28.04 -42.89,-72.15 26.31,-93.71 170.5,9.65 42.89,72.15zm-284.68 0.04c-57.44,-40.33 -80.07,-95.39 19.4,-111.59 47.43,50.69 42.49,81.04 -19.4,111.59zm-399.76 -74.63c9.52,158.04 42.83,94.65 123.15,162.6 29,24.55 54.7,101.74 99.59,151.15 224.66,247.29 555.76,158.31 681.77,-45.83 78.26,-126.77 -9.35,-68.93 116.66,-134.25 67.78,-35.14 73.22,-68.56 57.52,-159.95 -17.67,14.8 -11.14,10.55 -29,28.88 -71.96,73.85 -39.44,52.77 -104.2,62.02 -122.81,-191.09 68.74,-180.33 -279.04,-213.39 -188.78,-17.94 -230.63,-52.37 -356.89,-118.51 -155.24,108.11 -100.96,206.44 -173.84,330.87 -58.44,-4.2 -41.95,2.12 -108.55,-43.74l-27.17 -19.84z"/>
   <path class="fil2" d="M2699.45 849.87c78.09,33.6 19.36,23.06 75.53,87.49 33.81,38.77 72.13,52.39 124.85,51.55 148.87,-2.35 109.83,-103.19 197.08,-137.74 23.56,89.36 -83.43,189.41 -197.02,189.5 -110.42,0.09 -248.22,-109.7 -200.45,-190.8zm325.22 -87.8c-12.72,-13.77 -31.67,-17.17 -30.83,-56.07 1.2,-56.61 18.68,-36.15 25.74,-43.94 85.7,-15.19 103.31,79.55 5.09,100.02zm-249.12 -3.03c-43.04,-2.08 -59.18,3.3 -67.92,-39.36 -10.61,-51.66 23.45,-55.54 26.12,-58.3 73.54,-10.95 91.52,27.72 41.8,97.66zm-417.64 -0.46c16.98,73.37 61.45,51 115.8,91.54 37.01,27.61 85.11,240.71 325.32,294.35 371.07,82.82 489.28,-264.97 519.04,-289.98 51.17,-43.08 99.89,-26.98 117.96,-100.01 18.07,-73.05 -19.29,-121.24 -76.52,-130.8 -118.61,-19.8 -65.5,20.93 -373.61,-42.49 -99.7,-20.53 -281.55,7.61 -388.18,16.73 -118.46,10.13 -274.94,8.76 -239.81,160.67z"/>
   <path class="fil1" d="M2468.24 557.73c344.51,-22.97 540.02,-43.48 845.21,-133.62 -34.66,-239.79 -220.22,-325.85 -481.91,-268.85 -228.97,49.85 -342.14,156.48 -363.3,402.47z"/>
   <path class="fil2" d="M640.36 697.63c63.11,-94.32 33.8,-248.03 231.32,-333.63 206.27,195.68 466.72,89.46 564.42,167.64 39.68,31.74 48.86,69.37 68.07,110.1l12.04 24.17c1.66,3.17 5.38,9.04 6.79,11.56 1.41,2.57 4.26,7.97 7.04,11.5 99.24,-127.44 -6.43,-298.65 -77.02,-369.37 -195.91,-196.22 -570.85,-191.64 -764.23,7.02 -82.38,84.63 -173.82,257.13 -48.42,371.01z"/>
   <path class="fil1" d="M714.06 1366.47c-0.19,-307.27 36.8,-255.82 -221.88,-477.58 -291.38,-249.81 -48.74,-214.55 -189.88,-322.15 -62.2,40.79 -6.98,22.84 -53.38,99.95 -101.04,-11.56 -46.68,-59.62 -124.85,-106.59 -73.76,-44.34 -113.21,8.17 -102.68,86.54 16.83,125.38 335.85,394.88 438.91,487.73 87.15,78.54 205.09,211.71 253.76,232.1z"/>
   <path class="fil2" d="M1025.41 125.33c315.76,-12.76 544.37,142.91 591,404.13 22.32,125.15 29.63,66.49 54.96,145.39 54.11,168.63 -85.49,172.56 -147.7,243.87 50.38,113.38 306.37,105.06 379.71,-71.18 -228.33,-86.88 -109.09,-217.17 -310.44,-596.91 -152.34,-287.31 -457.53,-310.19 -567.53,-125.3z"/>
   <path class="fil2" d="M3432.83 1215.89c74.79,-64.01 118.78,-121.7 193.51,-193.53 104.59,-100.56 384.33,-296.41 321.14,-436.26 -62.37,-137.97 -147.09,51.17 -211.1,84.69 -59.96,-56.32 -4.29,-36.3 -53.38,-102.81 -84.15,38.08 -45.77,93.26 -53.46,190 -120.08,77.15 -212.95,217.03 -338.79,300.76 25.15,52.96 99.19,134.56 142.09,157.15z"/>
   <path class="fil1" d="M1456.5 1151.29c-16.77,293.36 -14.29,267.49 150.81,401.97 84.08,68.49 139.33,148.29 278.58,249.12 40.29,-41.94 106.86,-119.62 122.31,-154.84 -123.26,-98.1 -461.13,-437 -551.7,-496.24z"/>
   <path class="fil2" d="M2217.16 1925.61c63.28,-137.55 -55.02,-77.13 84.84,-199.12 54.64,-47.64 104.76,-93.75 152.15,-144.19 -21.88,-36.13 -97.2,-111.22 -141.23,-136.54 -96.15,77.95 -184.18,170.39 -269.8,252.94 -50.94,49.13 -209.25,198.54 -84.38,298.93 108.04,-7.75 89.07,-79.88 157.33,-131.16 75.51,13.13 51.97,19.84 101.08,59.14z"/>
   <path class="fil1" d="M1160.33 2485.33c27.09,178.34 70.05,227.43 44.83,427.79 100.56,29.24 165.73,65.38 292.79,48.82 -31.55,-60.15 -1.37,0.71 -40.46,-49.03 -78.87,-100.41 -33.54,-267.19 -44.78,-462.54l-252.38 34.95z"/>
   <path class="fil1" d="M964.8 2913.52c-24.19,-191.58 12.86,-247.38 44.09,-427.25l-253.91 -31.86c-3.89,201.81 33.33,365.28 -51.02,467.94 -19.93,24.23 -16.37,9.2 -32.28,39.59 135.51,17.04 186.26,-19.19 293.13,-48.42z"/>
   <path class="fil2" d="M2842.13 2927.58c-185.99,9.73 -156.36,64.9 -372.15,-13.72 -66.47,-24.23 -92.26,-17.21 -169.05,4.88 -82.82,23.85 -88.94,31.12 -73.47,134.73 99.24,64.63 227.45,43.02 370.17,43.42 196.22,0.52 273.87,51.63 244.5,-169.3z"/>
   <path class="fil2" d="M3416.11 3096.86c83.81,0 180.82,-2.1 177.9,-96.27 -2.31,-74.58 -87.55,-93.77 -166.13,-100.48 -75.99,-6.49 -114.6,39.57 -207.24,51.76 -104.89,13.83 -156.15,-15.09 -247.98,-28.85 -22.04,210.39 -38.04,173.84 443.45,173.84z"/>
   <path class="fil2" d="M1626.39 2973.79c-101.46,-23.69 -42.93,12.06 -137.69,38.29 -120,33.2 -218.9,-31.54 -302.83,-53.26 -35.79,177.19 63.97,142.13 201.73,141.42 107.6,-0.57 265.15,18.68 333.27,-28.9 -6.43,-63.53 -29.19,-82.34 -94.47,-97.56z"/>
   <path class="fil2" d="M448.21 3072.17c70.34,45.58 225.58,27.49 334.61,28.08 146.67,0.78 228.57,36.63 200.97,-140.66 -85.47,20.24 -181.39,85.41 -302.56,53.06 -101.67,-27.13 -31.61,-63.19 -137.21,-39.13 -67.13,15.32 -89.26,33.02 -95.81,98.65z"/>
   <path class="fil1" d="M3073.91 558.42c165.92,18.13 456.29,43.63 531,-82.95 -65.48,-36.82 -200.85,-42.07 -283.23,-7.96 -73.2,30.28 -186.56,51.38 -247.78,90.91z"/>
   <path class="fil1" d="M2085.86 1998.81c46.76,2.44 66.87,-3.43 93.83,-18.13l-49.33 -59.96 -44.51 78.09z"/>
  </g>
 </g>
</svg>
